<svg width="34" height="39" viewBox="0 0 34 39" fill="none" xmlns="http://www.w3.org/2000/svg">
  <path d="M6.07 21.72V19.46C12.7536 18.5423 19.4937 18.0979 26.24 18.13C26.24 18.73 26.24 19.34 26.18 19.95C28.0976 19.099 30.1128 18.4877 32.18 18.13C30.8625 14.722 28.4618 11.8412 25.3471 9.93087C22.2324 8.02052 18.5764 7.1864 14.9414 7.55683C11.3064 7.92727 7.89379 9.48172 5.22852 11.9811C2.56325 14.4804 0.792968 17.7863 0.19 21.39L6.07 21.72Z" fill="#FDC305"/>
  <path d="M27.24 25.23C26.08 26.51 25.85 26.43 25.85 28.68C25.85 29.59 25.85 33.58 25.85 37.86C28.1425 36.346 30.0245 34.2879 31.328 31.8694C32.6315 29.4509 33.3158 26.7474 33.32 24C33.3068 22.9591 33.1997 21.9216 33 20.9C30.9282 22.1295 28.9968 23.5814 27.24 25.23Z" fill="#FDC305"/>
  <path d="M6.36 26.72C6.36 26.72 2.57 25.28 1.17 24.89C0.787067 24.7693 0.396097 24.6757 0 24.61C0.108395 27.496 0.965588 30.3041 2.48739 32.7586C4.00919 35.2131 6.14326 37.2296 8.68 38.61L6.36 26.72Z" fill="#FDC305"/>
  <path d="M26.29 18.12C26.3307 12.5986 25.862 7.08528 24.89 1.65C24.89 1.65 24.75 0.36 24 1.41C23.4109 2.65814 23.0067 3.98539 22.8 5.35C18.5418 5.07577 14.2675 5.18957 10.03 5.69C9.24 3 7.85 1.75 7.18 2C6.51 2.25 6.46 5.31 6.46 5.31L6.13 19.41C12.8113 18.506 19.548 18.0749 26.29 18.12Z" fill="#F06351"/>
  <path d="M12.41 15C12.41 14.91 13.41 15.68 13.82 15.92C14.23 16.16 14.43 16.34 14.43 16.51C14.43 16.68 14.16 16.85 13.8 16.85C13.44 16.85 12.89 16.73 12.8 16.58H14.03C13.4207 16.1294 12.8757 15.5978 12.41 15Z" fill="black"/>
  <path d="M19.89 15.11L18.8 16.44C18.8 16.5 18.63 16.79 18.98 16.74C19.3942 16.6783 19.8023 16.5812 20.2 16.45C20.31 16.45 20.27 16.26 20.09 16.28C19.91 16.3 19.4 16.33 19.09 16.39L19.93 15.13C19.93 15.13 20 15 19.89 15.11Z" fill="black"/>
  <path d="M16.75 21.2C17.2135 20.9958 17.5967 20.6443 17.84 20.2C18.12 19.55 17.84 19.29 17.4 19.2C16.7979 19.0902 16.1765 19.2116 15.66 19.54C15.27 19.9 15.32 20.26 15.61 20.54C15.9613 20.8062 16.3442 21.0279 16.75 21.2Z" fill="black"/>
  <path d="M16.35 22.45C16.2379 22.6785 16.0816 22.8825 15.89 23.05C15.6052 23.2791 15.2551 23.4122 14.89 23.43C14.3638 23.472 13.8406 23.3189 13.42 23C13.2222 22.8808 13.0436 22.7324 12.89 22.56C12.7895 22.4491 12.6669 22.3605 12.53 22.3C12.53 22.3 13.28 26.4 15.1 27.05C16.92 27.7 17.24 26.3 17.3 25.92C17.3601 24.7851 17.0742 23.6588 16.48 22.69C16.46 22.38 16.45 22.58 16.35 22.45Z" fill="#F06351"/>
  <path d="M14.71 23.59C14.2453 23.5247 13.7989 23.3651 13.3982 23.1209C12.9975 22.8767 12.651 22.5531 12.38 22.17C12.3667 22.157 12.3561 22.1414 12.3489 22.1242C12.3417 22.1071 12.338 22.0886 12.338 22.07C12.338 22.0514 12.3417 22.0329 12.3489 22.0158C12.3561 21.9986 12.3667 21.983 12.38 21.97C12.393 21.9567 12.4086 21.9461 12.4258 21.9389C12.4429 21.9317 12.4614 21.928 12.48 21.928C12.4986 21.928 12.5171 21.9317 12.5342 21.9389C12.5514 21.9461 12.567 21.9567 12.58 21.97C13.0848 22.6642 13.843 23.1313 14.69 23.27C15.0217 23.245 15.3426 23.1413 15.6261 22.9674C15.9096 22.7934 16.1475 22.5544 16.32 22.27L16.46 22.08L16.56 22.29C16.56 22.29 16.93 23.05 17.56 23.09C18.19 23.13 18.61 22.68 19.17 21.81C19.183 21.7967 19.1986 21.7861 19.2158 21.7789C19.2329 21.7717 19.2514 21.768 19.27 21.768C19.2886 21.768 19.3071 21.7717 19.3242 21.7789C19.3414 21.7861 19.357 21.7967 19.37 21.81C19.4023 21.8306 19.4255 21.8629 19.4348 21.9C19.4441 21.9372 19.4388 21.9766 19.42 22.01C18.78 23.01 18.15 23.45 17.54 23.41C17.308 23.3763 17.0867 23.2904 16.8927 23.1587C16.6987 23.0271 16.5371 22.8531 16.42 22.65C16.2233 22.9245 15.9676 23.1514 15.6717 23.3141C15.3758 23.4767 15.0471 23.571 14.71 23.59Z" fill="black"/>
  <path d="M26.24 19.92C24.4445 21.5437 22.7512 23.277 21.17 25.11C19.5986 26.9361 17.8238 28.5768 15.88 30C15.66 29.47 14.26 28.49 14.26 28.49C14.26 28.49 11.13 26.35 9.08 24.67C7.97414 23.7373 6.9287 22.7353 5.95 21.67L3.95 21.56C6.84018 25.7655 11.0702 28.8676 15.95 30.36C16.81 30.22 19.22 28.5 21.02 27.1C23.1389 25.2819 25.124 23.3134 26.96 21.21C27.4625 20.621 27.8493 19.9425 28.1 19.21C27 19.6 26.24 19.92 26.24 19.92Z" fill="#F06351"/>
</svg>
